<?xml version="1.0" encoding="UTF-8"?>
<svg id="Layer_1" data-name="Layer 1" xmlns="http://www.w3.org/2000/svg" viewBox="0 0 100 71.17">
  <defs>
    <style>
      .cls-2 {
        fill: #f35e29;
      }
      .cls-3 {
        fill: #efca06;
      }
      .cls-4 {
        fill: #16a5a6;
      }
    </style>
  </defs>
  <path class="cls-4" d="M64.21,17.39h13.42c2.38,0,4.61,0.48,6.69,1.44,2.08,0.96,3.90,2.23,5.46,3.82,1.56,1.59,2.78,3.44,3.68,5.55,0.90,2.11,1.34,4.33,1.34,6.64s-0.44,4.48-1.32,6.60c-0.88,2.11-2.10,3.97-3.66,5.58c-1.56,1.61-3.38,2.89-5.46,3.84c-2.08,0.96-4.33,1.44-6.73,1.44h-13.42V17.39Z"/>
  <path class="cls-3" d="M40.76,17.39h13.42c2.38,0,4.61,0.48,6.69,1.44,2.08,0.96,3.90,2.23,5.46,3.82,1.56,1.59,2.78,3.44,3.68,5.55,0.90,2.11,1.34,4.33,1.34,6.64s-0.44,4.48-1.32,6.60c-0.88,2.11-2.10,3.97-3.66,5.58c-1.56,1.61-3.38,2.89-5.46,3.84c-2.08,0.96-4.33,1.44-6.73,1.44h-13.42V17.39Z"/>
  <path class="cls-2" d="M17.30,17.39h13.42c2.38,0,4.61,0.48,6.69,1.44,2.08,0.96,3.90,2.23,5.46,3.82,1.56,1.59,2.78,3.44,3.68,5.55,0.90,2.11,1.34,4.33,1.34,6.64s-0.44,4.48-1.32,6.60c-0.88,2.11-2.10,3.97-3.66,5.58c-1.56,1.61-3.38,2.89-5.46,3.84c-2.08,0.96-4.33,1.44-6.73,1.44h-13.42V17.39Z"/>
</svg>
