<?xml version="1.0" encoding="UTF-8"?>
<svg id="Layer_1" data-name="Layer 1" xmlns="http://www.w3.org/2000/svg" viewBox="0 0 354.08 71.17">
  <defs>
    <style>
      .cls-1 {
        fill: #3d5567;
      }
      .cls-1, .cls-2, .cls-3, .cls-4 {
        fill-rule: evenodd;
        stroke-width: 0px;
      }
      .cls-2 {
        fill: #f35e29;
      }
      .cls-3 {
        fill: #efca06;
      }
      .cls-4 {
        fill: #16a5a6;
      }
    </style>
  </defs>
  <path class="cls-4" d="M64.21,17.39h13.42c2.38,0,4.61,0.48,6.69,1.44,2.08,0.96,3.90,2.23,5.46,3.82,1.56,1.59,2.78,3.44,3.68,5.55,0.90,2.11,1.34,4.33,1.34,6.64s-0.44,4.48-1.32,6.60c-0.88,2.11-2.10,3.97-3.66,5.58c-1.56,1.61-3.38,2.89-5.46,3.84c-2.08,0.96-4.33,1.44-6.73,1.44h-13.42V17.39Z"/>
  <path class="cls-3" d="M40.76,17.39h13.42c2.38,0,4.61,0.48,6.69,1.44,2.08,0.96,3.90,2.23,5.46,3.82,1.56,1.59,2.78,3.44,3.68,5.55,0.90,2.11,1.34,4.33,1.34,6.64s-0.44,4.48-1.32,6.60c-0.88,2.11-2.10,3.97-3.66,5.58c-1.56,1.61-3.38,2.89-5.46,3.84c-2.08,0.96-4.33,1.44-6.73,1.44h-13.42V17.39Z"/>
  <path class="cls-2" d="M17.30,17.39h13.42c2.38,0,4.61,0.48,6.69,1.44,2.08,0.96,3.90,2.23,5.46,3.82,1.56,1.59,2.78,3.44,3.68,5.55,0.90,2.11,1.34,4.33,1.34,6.64s-0.44,4.48-1.32,6.60c-0.88,2.11-2.10,3.97-3.66,5.58c-1.56,1.61-3.38,2.89-5.46,3.84c-2.08,0.96-4.33,1.44-6.73,1.44h-13.42V17.39Z"/>
  <path class="cls-1" d="M326.51,25.05h10.76v-7.67h-19.81v34.82h19.81v-7.67h-10.76v-6.00h10.16v-7.67h-10.16v-5.82ZM281.17,17.39h13.39c2.37,0,4.60,0.48,6.67,1.43,2.08,0.96,3.90,2.23,5.45,3.81,1.56,1.59,2.78,3.43,3.67,5.54,0.89,2.11,1.34,4.32,1.34,6.63s-0.44,4.47-1.32,6.58c-0.88,2.11-2.09,3.96-3.65,5.57c-1.56,1.60-3.37,2.88-5.45,3.83c-2.08,0.96-4.32,1.43-6.72,1.43h-13.39V17.39ZM292.30,44.54h-2.08v-19.49h2.08c1.54,0,2.93,0.25,4.16,0.74,1.23,0.49,2.27,1.17,3.12,2.03,0.85,0.86,1.50,1.89,1.96,3.10s0.69,2.49,0.69,3.88s-0.22,2.72-0.67,3.90c-0.45,1.19-1.09,2.21-1.94,3.07s-1.89,1.54-3.12,2.03c-1.23,0.49-2.63,0.74-4.20,0.74ZM273.87,52.20h-9.05V17.39h9.05v34.82ZM236.19,46.15h12.93l2.08,6.05h9.65l-13.25-34.82h-9.88l-13.25,34.82h9.65l2.08-6.05ZM246.72,39.27l-4.06-11.59l-4.06,11.59h8.13ZM212.27,44.54v-27.15h-9.05v34.82h19.90v-7.67h-10.85ZM196.71,25.05h-10.76v5.82h10.16v7.67h-10.16v6.00h10.76v7.67h-19.81V17.39h19.81v7.67ZM154.00,17.39h-13.39v34.82h13.39c2.40,0,4.64-0.48,6.72-1.43,2.08-0.96,3.89-2.23,5.45-3.83,1.56-1.60,2.77-3.46,3.65-5.57,0.88-2.11,1.32-4.30,1.32-6.58s-0.45-4.52-1.34-6.63c-0.89-2.11-2.12-3.96-3.67-5.54-1.56-1.59-3.37-2.86-5.45-3.81-2.08-0.96-4.30-1.43-6.67-1.43ZM149.66,44.54h2.08c1.57,0,2.97-0.25,4.20-0.74,1.23-0.49,2.27-1.17,3.12-2.03,0.85-0.86,1.49-1.89,1.94-3.07,0.45-1.19,0.67-2.49,0.67-3.90s-0.23-2.68-0.69-3.88c-0.46-1.21-1.12-2.23-1.96-3.10c-0.85-0.86-1.89-1.54-3.12-2.03c-1.23-0.49-2.62-0.74-4.16-0.74h-2.08v19.49ZM118.44,27.68l4.06,11.59h-8.13l4.06-11.59ZM109.90,52.20l2.08-6.05h12.93l2.08,6.05h9.65l-13.25-34.82h-9.88l-13.25,34.82h9.65Z"/>
</svg>
